<svg xmlns="http://www.w3.org/2000/svg" width="650" height="340" viewBox="0 0 650 340">
  <defs>
    <linearGradient id="ab" x1="0%" y1="0%" x2="100%" y2="100%">
      <stop offset="0%" style="stop-color:#0d0d14"/>
      <stop offset="100%" style="stop-color:#12121f"/>
    </linearGradient>
  </defs>
  <rect width="650" height="340" rx="14" fill="url(#ab)"/>

  <!-- App -->
  <rect x="240" y="20" width="170" height="50" rx="8" fill="#111" stroke="#00d2ff" stroke-width="1.5"/>
  <text x="325" y="50" text-anchor="middle" font-family="SF Mono, monospace" font-size="14" font-weight="600" fill="#00d2ff">app.js</text>
  <text x="325" y="62" text-anchor="middle" font-family="Inter, sans-serif" font-size="9" fill="#666">Entry point &amp; dropzone</text>

  <!-- Lines from App -->
  <line x1="280" y1="70" x2="140" y2="120" stroke="#333" stroke-width="1"/>
  <line x1="325" y1="70" x2="325" y2="120" stroke="#333" stroke-width="1"/>
  <line x1="370" y1="70" x2="510" y2="120" stroke="#333" stroke-width="1"/>

  <!-- Viewer -->
  <rect x="55" y="120" width="170" height="50" rx="8" fill="#111" stroke="#7b2ff7" stroke-width="1.5"/>
  <text x="140" y="150" text-anchor="middle" font-family="SF Mono, monospace" font-size="14" font-weight="600" fill="#7b2ff7">viewer.js</text>
  <text x="140" y="162" text-anchor="middle" font-family="Inter, sans-serif" font-size="9" fill="#666">Three.js scene &amp; GUI</text>

  <!-- Validator -->
  <rect x="240" y="120" width="170" height="50" rx="8" fill="#111" stroke="#ff0080" stroke-width="1.5"/>
  <text x="325" y="150" text-anchor="middle" font-family="SF Mono, monospace" font-size="14" font-weight="600" fill="#ff0080">validator.js</text>
  <text x="325" y="162" text-anchor="middle" font-family="Inter, sans-serif" font-size="9" fill="#666">glTF spec validation</text>

  <!-- Environments -->
  <rect x="425" y="120" width="170" height="50" rx="8" fill="#111" stroke="#ff6b35" stroke-width="1.5"/>
  <text x="510" y="150" text-anchor="middle" font-family="SF Mono, monospace" font-size="14" font-weight="600" fill="#ff6b35">environments.js</text>
  <text x="510" y="162" text-anchor="middle" font-family="Inter, sans-serif" font-size="9" fill="#666">HDR env map registry</text>

  <!-- Lines to Components -->
  <line x1="325" y1="170" x2="325" y2="220" stroke="#333" stroke-width="1"/>

  <!-- Components header -->
  <rect x="140" y="220" width="370" height="36" rx="8" fill="#111" stroke="#00ff88" stroke-width="1.5"/>
  <text x="325" y="244" text-anchor="middle" font-family="SF Mono, monospace" font-size="13" font-weight="600" fill="#00ff88">components/</text>

  <!-- Component boxes -->
  <rect x="55" y="276" width="130" height="40" rx="6" fill="#0a0a12" stroke="#444" stroke-width="1"/>
  <text x="120" y="300" text-anchor="middle" font-family="SF Mono, monospace" font-size="10" fill="#aaa">footer.jsx</text>

  <rect x="200" y="276" width="130" height="40" rx="6" fill="#0a0a12" stroke="#444" stroke-width="1"/>
  <text x="265" y="300" text-anchor="middle" font-family="SF Mono, monospace" font-size="10" fill="#aaa">validator-report</text>

  <rect x="345" y="276" width="130" height="40" rx="6" fill="#0a0a12" stroke="#444" stroke-width="1"/>
  <text x="410" y="300" text-anchor="middle" font-family="SF Mono, monospace" font-size="10" fill="#aaa">validator-table</text>

  <rect x="490" y="276" width="130" height="40" rx="6" fill="#0a0a12" stroke="#444" stroke-width="1"/>
  <text x="555" y="300" text-anchor="middle" font-family="SF Mono, monospace" font-size="10" fill="#aaa">validator-toggle</text>

  <line x1="200" y1="256" x2="120" y2="276" stroke="#333" stroke-width="1"/>
  <line x1="280" y1="256" x2="265" y2="276" stroke="#333" stroke-width="1"/>
  <line x1="370" y1="256" x2="410" y2="276" stroke="#333" stroke-width="1"/>
  <line x1="450" y1="256" x2="555" y2="276" stroke="#333" stroke-width="1"/>
</svg>
