<svg xmlns="http://www.w3.org/2000/svg" width="650" height="260" viewBox="0 0 650 260">
  <rect width="650" height="260" rx="14" fill="#0d0d14"/>
  <text x="325" y="30" text-anchor="middle" font-family="Inter, sans-serif" font-size="10" fill="#666" letter-spacing="3">WHAT'S NEXT</text>

  <rect x="20" y="50" width="295" height="38" rx="6" fill="#111" stroke="#00d2ff" stroke-opacity="0.3"/>
  <text x="35" y="74" font-family="Inter, sans-serif" font-size="12" fill="#00d2ff">◆</text>
  <text x="55" y="74" font-family="Inter, sans-serif" font-size="11" fill="#ccc">AI-powered model analysis &amp; suggestions</text>

  <rect x="335" y="50" width="295" height="38" rx="6" fill="#111" stroke="#7b2ff7" stroke-opacity="0.3"/>
  <text x="350" y="74" font-family="Inter, sans-serif" font-size="12" fill="#7b2ff7">◆</text>
  <text x="370" y="74" font-family="Inter, sans-serif" font-size="11" fill="#ccc">Screenshot &amp; video export</text>

  <rect x="20" y="100" width="295" height="38" rx="6" fill="#111" stroke="#ff0080" stroke-opacity="0.3"/>
  <text x="35" y="124" font-family="Inter, sans-serif" font-size="12" fill="#ff0080">◆</text>
  <text x="55" y="124" font-family="Inter, sans-serif" font-size="11" fill="#ccc">Measurement tools (distances, angles)</text>

  <rect x="335" y="100" width="295" height="38" rx="6" fill="#111" stroke="#ff6b35" stroke-opacity="0.3"/>
  <text x="350" y="124" font-family="Inter, sans-serif" font-size="12" fill="#ff6b35">◆</text>
  <text x="370" y="124" font-family="Inter, sans-serif" font-size="11" fill="#ccc">Texture channel inspector (normal, AO, etc.)</text>

  <rect x="20" y="150" width="295" height="38" rx="6" fill="#111" stroke="#00ff88" stroke-opacity="0.3"/>
  <text x="35" y="174" font-family="Inter, sans-serif" font-size="12" fill="#00ff88">◆</text>
  <text x="55" y="174" font-family="Inter, sans-serif" font-size="11" fill="#ccc">Side-by-side model comparison</text>

  <rect x="335" y="150" width="295" height="38" rx="6" fill="#111" stroke="#ffe66d" stroke-opacity="0.3"/>
  <text x="350" y="174" font-family="Inter, sans-serif" font-size="12" fill="#ffe66d">◆</text>
  <text x="370" y="174" font-family="Inter, sans-serif" font-size="11" fill="#ccc">AR mode (WebXR quick-look)</text>

  <rect x="20" y="200" width="295" height="38" rx="6" fill="#111" stroke="#00d2ff" stroke-opacity="0.3"/>
  <text x="35" y="224" font-family="Inter, sans-serif" font-size="12" fill="#00d2ff">◆</text>
  <text x="55" y="224" font-family="Inter, sans-serif" font-size="11" fill="#ccc">Scene graph tree explorer</text>

  <rect x="335" y="200" width="295" height="38" rx="6" fill="#111" stroke="#7b2ff7" stroke-opacity="0.3"/>
  <text x="350" y="224" font-family="Inter, sans-serif" font-size="12" fill="#7b2ff7">◆</text>
  <text x="370" y="224" font-family="Inter, sans-serif" font-size="11" fill="#ccc">Material editor with live PBR preview</text>
</svg>
